<svg width="400" height="300" viewBox="0 0 400 300" fill="none" xmlns="http://www.w3.org/2000/svg">
<g clip-path="url(#clip0)">
<path d="M306.998 279.615H339.921C342.628 279.615 344.824 281.891 344.824 284.699V285.795C344.824 288.602 342.628 290.879 339.921 290.879H306.998C304.288 290.879 302.093 288.602 302.093 285.795V284.699C302.093 281.891 304.288 279.615 306.998 279.615Z" fill="#461D71"/>
<path d="M361.762 130.068V65.0415C364.238 65.0415 366.245 67.1235 366.245 69.6921V125.418C366.245 127.986 364.238 130.068 361.762 130.068Z" fill="#3D2358"/>
<path d="M62.317 134.51H57.8325V174.665H62.317V134.51Z" fill="#3D2358"/>
<path d="M383.778 257.047V250.771H50.0283V257.047H383.778Z" fill="#1A346B"/>
<path d="M349.436 253.491H75.0468C67.3618 253.491 61.1318 247.032 61.1318 239.062V49.092C61.1318 41.1224 67.3618 34.6616 75.0468 34.6616H349.436C357.122 34.6616 363.35 41.1224 363.35 49.092V239.062C363.35 247.032 357.122 253.491 349.436 253.491Z" fill="#4624D2"/>
<path d="M243.3 214.698H289.272" stroke="#472A66" stroke-width="2.41999" stroke-miterlimit="10"/>
<path d="M243.3 223.22H289.272" stroke="#472A66" stroke-width="2.41999" stroke-miterlimit="10"/>
<path d="M223.57 206.178H90.085C88.3702 206.178 86.98 204.737 86.98 202.958V158.244C86.98 156.465 88.3702 155.024 90.085 155.024H223.57C225.285 155.024 226.675 156.465 226.675 158.244V202.958C226.675 204.737 225.285 206.178 223.57 206.178Z" fill="#A782CE"/>
<path d="M327.181 206.178H246.405C244.691 206.178 243.3 204.737 243.3 202.958V158.244C243.3 156.465 244.691 155.024 246.405 155.024H327.181C328.895 155.024 330.286 156.465 330.286 158.244V202.958C330.286 204.737 328.895 206.178 327.181 206.178Z" fill="#181818"/>
<path d="M327.181 125.311H90.085C88.3702 125.311 86.98 123.87 86.98 122.091V75.4485C86.98 73.6702 88.3702 72.2285 90.085 72.2285H327.181C328.895 72.2285 330.286 73.6702 330.286 75.4485V122.091C330.286 123.87 328.895 125.311 327.181 125.311Z" fill="#A782CE"/>
<path d="M327.181 143.661H90.085C88.3702 143.661 86.98 142.22 86.98 140.442C86.98 138.663 88.3702 137.222 90.085 137.222H327.181C328.895 137.222 330.286 138.663 330.286 140.442C330.286 142.22 328.895 143.661 327.181 143.661Z" fill="#C1F9FF"/>
<path d="M89.9031 53.9533C91.5176 53.9533 92.8262 52.596 92.8262 50.922C92.8262 49.2479 91.5176 47.8906 89.9031 47.8906C88.2888 47.8906 86.98 49.2479 86.98 50.922C86.98 52.596 88.2888 53.9533 89.9031 53.9533Z" fill="#472A66"/>
<path d="M100.189 53.9533C101.803 53.9533 103.112 52.596 103.112 50.922C103.112 49.2479 101.803 47.8906 100.189 47.8906C98.5749 47.8906 97.2661 49.2479 97.2661 50.922C97.2661 52.596 98.5749 53.9533 100.189 53.9533Z" fill="#472A66"/>
<path d="M110.475 53.9533C112.089 53.9533 113.398 52.596 113.398 50.922C113.398 49.2479 112.089 47.8906 110.475 47.8906C108.861 47.8906 107.552 49.2479 107.552 50.922C107.552 52.596 108.861 53.9533 110.475 53.9533Z" fill="#472A66"/>
<path d="M86.98 223.22H191.107" stroke="#472A66" stroke-width="2.82654" stroke-miterlimit="10"/>
<path d="M86.98 231.74H149.697" stroke="#472A66" stroke-width="2.82654" stroke-miterlimit="10"/>
<path d="M282.604 49.6943H260.181V52.1497H282.604V49.6943Z" fill="#472A66"/>
<path d="M309.217 49.6943H286.793V52.1497H309.217V49.6943Z" fill="#472A66"/>
<path d="M335.829 49.6943H313.405V52.1497H335.829V49.6943Z" fill="#472A66"/>
<path d="M199.939 132.992H114.126C107.102 132.992 101.408 127.087 101.408 119.802V80.1132C101.408 72.8285 107.102 66.9233 114.126 66.9233H199.939C206.963 66.9233 212.658 72.8285 212.658 80.1132V119.802C212.658 127.087 206.963 132.992 199.939 132.992Z" fill="#65C1E3"/>
<path d="M202.383 65.042C209.807 65.042 215.826 71.2835 215.826 78.983V120.932C215.826 128.632 209.807 134.873 202.383 134.873" stroke="#190065" stroke-width="2.30795" stroke-miterlimit="10"/>
<path d="M156.432 91.6214H147.09C146.483 91.6214 145.992 91.1113 145.992 90.4824C145.992 87.4449 148.366 84.9824 151.295 84.9824H152.227C155.156 84.9824 157.53 87.4449 157.53 90.4824C157.53 91.1113 157.039 91.6214 156.432 91.6214Z" fill="#461D71"/>
<path d="M151.761 83.5163C153.484 83.5163 154.88 82.0679 154.88 80.2815C154.88 78.4948 153.484 77.0464 151.761 77.0464C150.038 77.0464 148.642 78.4948 148.642 80.2815C148.642 82.0679 150.038 83.5163 151.761 83.5163Z" fill="#461D71"/>
<path d="M174.058 91.6214H164.716C164.11 91.6214 163.618 91.1113 163.618 90.4824C163.618 87.4449 165.993 84.9824 168.922 84.9824H169.853C172.782 84.9824 175.157 87.4449 175.157 90.4824C175.157 91.1113 174.665 91.6214 174.058 91.6214Z" fill="#461D71"/>
<path d="M169.388 83.5163C171.111 83.5163 172.507 82.0679 172.507 80.2815C172.507 78.4948 171.111 77.0464 169.388 77.0464C167.665 77.0464 166.269 78.4948 166.269 80.2815C166.269 82.0679 167.665 83.5163 169.388 83.5163Z" fill="#461D71"/>
<path d="M191.686 91.6214H182.343C181.737 91.6214 181.245 91.1113 181.245 90.4824C181.245 87.4449 183.62 84.9824 186.549 84.9824H187.48C190.409 84.9824 192.784 87.4449 192.784 90.4824C192.784 91.1113 192.292 91.6214 191.686 91.6214Z" fill="#461D71"/>
<path d="M187.015 83.5163C188.737 83.5163 190.134 82.0679 190.134 80.2815C190.134 78.4948 188.737 77.0464 187.015 77.0464C185.292 77.0464 183.895 78.4948 183.895 80.2815C183.895 82.0679 185.292 83.5163 187.015 83.5163Z" fill="#461D71"/>
<path d="M148.642 99.957H190.134" stroke="#1B727C" stroke-width="3.00264" stroke-miterlimit="10"/>
<path d="M148.642 105.836H181.245" stroke="#1B727C" stroke-width="3.00264" stroke-miterlimit="10"/>
<path d="M148.642 111.714H190.134" stroke="#1B727C" stroke-width="3.00264" stroke-miterlimit="10"/>
<path d="M148.642 117.592H190.134" stroke="#1B727C" stroke-width="3.00264" stroke-miterlimit="10"/>
<path d="M131.235 121.066H115.754C112.636 121.066 110.108 118.445 110.108 115.212V84.7572C110.108 81.5238 112.636 78.9028 115.754 78.9028H131.235C134.353 78.9028 136.88 81.5238 136.88 84.7572V115.212C136.88 118.445 134.353 121.066 131.235 121.066Z" fill="#C1F9FF"/>
<path d="M37.637 26.8223H106.571C112.041 26.8223 116.475 31.4208 116.475 37.0934V51.4208C116.475 57.0934 112.041 61.6919 106.571 61.6919H37.637C32.1672 61.6919 27.7329 57.0934 27.7329 51.4208V37.0934C27.7329 31.4208 32.1672 26.8223 37.637 26.8223Z" stroke="#190065" stroke-width="2.30795" stroke-miterlimit="10"/>
<path d="M75.4277 16.225V47.531C75.4277 52.0322 71.9089 55.6813 67.5684 55.6813H57.3051C52.9644 55.6813 49.4458 52.0322 49.4458 47.531V16.225C49.4458 11.7237 52.9644 8.07471 57.3051 8.07471H67.5684C71.9089 8.07471 75.4277 11.7237 75.4277 16.225Z" stroke="#190065" stroke-width="2.30795" stroke-miterlimit="10"/>
<path d="M268.043 74.2261H265.91V99.91H268.043V74.2261Z" fill="#190065"/>
<path d="M272.81 85.5176H270.676V111.201H272.81V85.5176Z" fill="#190065"/>
<path d="M378.545 270.257V269.15H353.778V270.257H378.545Z" fill="#190065"/>
<path d="M367.655 274.094V272.988H342.888V274.094H367.655Z" fill="#190065"/>
<path d="M239.884 17.8373H231.704C231.173 17.8373 230.742 17.3908 230.742 16.84C230.742 14.1804 232.821 12.0244 235.386 12.0244H236.202C238.767 12.0244 240.846 14.1804 240.846 16.84C240.846 17.3908 240.415 17.8373 239.884 17.8373Z" fill="#461D71"/>
<path d="M235.793 10.7409C237.301 10.7409 238.524 9.47281 238.524 7.90854C238.524 6.34427 237.301 5.07617 235.793 5.07617C234.285 5.07617 233.062 6.34427 233.062 7.90854C233.062 9.47281 234.285 10.7409 235.793 10.7409Z" fill="#461D71"/>
<path d="M255.317 17.8373H247.138C246.605 17.8373 246.176 17.3908 246.176 16.84C246.176 14.1804 248.255 12.0244 250.819 12.0244H251.633C254.2 12.0244 256.279 14.1804 256.279 16.84C256.279 17.3908 255.848 17.8373 255.317 17.8373Z" fill="#461D71"/>
<path d="M251.226 10.7409C252.736 10.7409 253.957 9.47281 253.957 7.90854C253.957 6.34427 252.736 5.07617 251.226 5.07617C249.719 5.07617 248.495 6.34427 248.495 7.90854C248.495 9.47281 249.719 10.7409 251.226 10.7409Z" fill="#461D71"/>
<path d="M270.75 17.8373H262.569C262.038 17.8373 261.609 17.3908 261.609 16.84C261.609 14.1804 263.688 12.0244 266.252 12.0244H267.067C269.633 12.0244 271.712 14.1804 271.712 16.84C271.712 17.3908 271.281 17.8373 270.75 17.8373Z" fill="#461D71"/>
<path d="M266.66 10.7409C268.169 10.7409 269.391 9.47281 269.391 7.90854C269.391 6.34427 268.169 5.07617 266.66 5.07617C265.153 5.07617 263.929 6.34427 263.929 7.90854C263.929 9.47281 265.153 10.7409 266.66 10.7409Z" fill="#461D71"/>
<path d="M241.424 267.788V285.247H332.162" stroke="#190065" stroke-width="2.30795" stroke-miterlimit="10" stroke-dasharray="4.62 4.62"/>
<path d="M130.39 253.491H197.376" stroke="#190065" stroke-width="2.30795" stroke-miterlimit="10" stroke-linecap="round"/>
<path d="M234.18 285.351V231.983" stroke="#190065" stroke-width="2.30795" stroke-miterlimit="10"/>
<path d="M226.674 23.9204H275.778" stroke="#190065" stroke-width="2.30795" stroke-miterlimit="10" stroke-dasharray="4.62 4.62"/>
<path d="M62.2935 279.195C66.5738 279.195 70.0559 282.805 70.0559 287.244C70.0559 291.684 66.5738 295.294 62.2935 295.294C58.0131 295.294 54.5309 291.684 54.5309 287.244C54.5309 282.805 58.0131 279.195 62.2935 279.195ZM62.2935 276.059C56.3374 276.059 51.5093 281.066 51.5093 287.244C51.5093 293.42 56.3374 298.427 62.2935 298.427C68.2493 298.427 73.0773 293.42 73.0773 287.244C73.0773 281.066 68.2493 276.059 62.2935 276.059Z" fill="#461D71"/>
<path d="M63.9879 274.422H60.5991V277.422H63.9879V274.422Z" fill="#461D71"/>
<path d="M63.9879 296.926H60.5991V299.926H63.9879V296.926Z" fill="#461D71"/>
<path d="M69.7903 276.916L67.7446 279.037L70.1411 281.521L72.1868 279.4L69.7903 276.916Z" fill="#461D71"/>
<path d="M54.4454 292.83L52.3999 294.951L54.7961 297.435L56.8418 295.314L54.4454 292.83Z" fill="#461D71"/>
<path d="M74.5904 285.417H71.6973V288.931H74.5904V285.417Z" fill="#461D71"/>
<path d="M52.8892 285.417H49.9961V288.931H52.8892V285.417Z" fill="#461D71"/>
<path d="M70.1413 292.83L67.7451 295.314L69.7906 297.435L72.187 294.951L70.1413 292.83Z" fill="#461D71"/>
<path d="M54.7961 276.916L52.3999 279.4L54.4454 281.521L56.8418 279.037L54.7961 276.916Z" fill="#461D71"/>
<path d="M44.3965 268.797C47.4753 268.797 49.9804 271.395 49.9804 274.587C49.9804 277.78 47.4753 280.38 44.3965 280.38C41.3175 280.38 38.8125 277.78 38.8125 274.587C38.8125 271.395 41.3175 268.797 44.3965 268.797ZM44.3965 266.543C40.1123 266.543 36.6392 270.145 36.6392 274.587C36.6392 279.032 40.1123 282.632 44.3965 282.632C48.6808 282.632 52.1539 279.032 52.1539 274.587C52.1539 270.145 48.6808 266.543 44.3965 266.543Z" fill="#461D71"/>
<path d="M46.0684 264.965H42.7251V267.923H46.0684V264.965Z" fill="#461D71"/>
<path d="M46.0682 281.153H42.7251V284.114H46.0682V281.153Z" fill="#461D71"/>
<path d="M49.7424 266.543L47.7241 268.637L50.0882 271.089L52.1062 268.995L49.7424 266.543Z" fill="#461D71"/>
<path d="M38.7044 277.99L36.6865 280.084L39.0506 282.536L41.0687 280.442L38.7044 277.99Z" fill="#461D71"/>
<path d="M53.6287 272.805H50.7744V276.271H53.6287V272.805Z" fill="#461D71"/>
<path d="M38.0183 272.805H35.1646V276.271H38.0183V272.805Z" fill="#461D71"/>
<path d="M50.0889 277.99L47.7246 280.442L49.743 282.536L52.1068 280.084L50.0889 277.99Z" fill="#461D71"/>
<path d="M39.0508 266.543L36.6865 268.995L38.7046 271.089L41.0687 268.637L39.0508 266.543Z" fill="#461D71"/>
<path d="M63.9883 287.148H108.145C112.407 287.148 115.862 283.565 115.862 279.146V185.449C115.862 181.029 119.316 177.446 123.578 177.446H155.137C159.399 177.446 162.853 173.864 162.853 169.444V139.669" stroke="#190065" stroke-width="2.30795" stroke-miterlimit="10" stroke-dasharray="4.62 4.62"/>
<path d="M62.5921 289.459C63.8962 289.459 64.9533 288.363 64.9533 287.01C64.9533 285.659 63.8962 284.563 62.5921 284.563C61.2881 284.563 60.231 285.659 60.231 287.01C60.231 288.363 61.2881 289.459 62.5921 289.459Z" fill="#461D71"/>
<path d="M156.164 179.904C157.468 179.904 158.525 178.807 158.525 177.455C158.525 176.102 157.468 175.006 156.164 175.006C154.86 175.006 153.802 176.102 153.802 177.455C153.802 178.807 154.86 179.904 156.164 179.904Z" fill="#190065"/>
<path d="M156.164 184.217C159.765 184.217 162.684 181.189 162.684 177.455C162.684 173.72 159.765 170.693 156.164 170.693C152.562 170.693 149.643 173.72 149.643 177.455C149.643 181.189 152.562 184.217 156.164 184.217Z" stroke="#190065" stroke-width="2.30795" stroke-miterlimit="10"/>
<path d="M162.853 142.119C164.157 142.119 165.214 141.023 165.214 139.67C165.214 138.318 164.157 137.222 162.853 137.222C161.548 137.222 160.491 138.318 160.491 139.67C160.491 141.023 161.548 142.119 162.853 142.119Z" stroke="#190065" stroke-width="1.85122" stroke-miterlimit="10"/>
<path d="M386.829 76.2777V35.9066C386.829 32.5864 389.424 29.895 392.624 29.895H393.874C397.076 29.895 399.671 32.5864 399.671 35.9066V76.2777C399.671 79.598 397.076 82.2893 393.874 82.2893H392.624C389.424 82.2893 386.829 79.598 386.829 76.2777Z" stroke="#461D71" stroke-width="2.30795" stroke-miterlimit="10"/>
<path d="M377.755 3.18652H393.25V57.0477" stroke="#190065" stroke-width="2.30795" stroke-miterlimit="10" stroke-linecap="round"/>
<path d="M380.519 0.319824H374.99V6.0536H380.519V0.319824Z" stroke="#190065" stroke-width="2.30556" stroke-miterlimit="10" stroke-linecap="round"/>
<path d="M125.123 238.034H89.7508C86.842 238.034 84.4839 235.589 84.4839 232.572V231.395C84.4839 228.378 86.842 225.933 89.7508 225.933H125.123C128.032 225.933 130.39 228.378 130.39 231.395V232.572C130.39 235.589 128.032 238.034 125.123 238.034Z" stroke="black" stroke-width="2.09489" stroke-miterlimit="10"/>
<path d="M25.2222 168.202V173.412H30.2457V168.202H25.2222Z" stroke="#190065" stroke-width="2.30795" stroke-miterlimit="10" stroke-linecap="round"/>
<path d="M238.912 263.941V269.151H243.936V263.941H238.912Z" stroke="#190065" stroke-width="2.09489" stroke-miterlimit="10" stroke-linecap="round"/>
<path d="M65.7123 115.957C71.2318 115.957 75.7061 111.317 75.7061 105.593C75.7061 99.869 71.2318 95.229 65.7123 95.229C60.1928 95.229 55.7183 99.869 55.7183 105.593C55.7183 111.317 60.1928 115.957 65.7123 115.957Z" stroke="#190065" stroke-width="3.21083" stroke-miterlimit="10"/>
<path d="M65.7128 108.042C67.0168 108.042 68.074 106.946 68.074 105.593C68.074 104.241 67.0168 103.145 65.7128 103.145C64.4087 103.145 63.3516 104.241 63.3516 105.593C63.3516 106.946 64.4087 108.042 65.7128 108.042Z" fill="#190065"/>
<path d="M9.67638 160.066C14.8385 160.066 19.0232 155.726 19.0232 150.373C19.0232 145.019 14.8385 140.68 9.67638 140.68C4.51428 140.68 0.32959 145.019 0.32959 150.373C0.32959 155.726 4.51428 160.066 9.67638 160.066Z" stroke="#461D71" stroke-width="2.30795" stroke-miterlimit="10"/>
<path d="M9.67627 150.372H54.3385C60.6202 150.372 65.7126 145.091 65.7126 138.577V105.594" stroke="#190065" stroke-width="2.30795" stroke-miterlimit="10"/>
<path d="M9.67641 153.289C11.2303 153.289 12.49 151.983 12.49 150.371C12.49 148.76 11.2303 147.454 9.67641 147.454C8.12251 147.454 6.86279 148.76 6.86279 150.371C6.86279 151.983 8.12251 153.289 9.67641 153.289Z" fill="#461D71"/>
<path d="M378.212 104.959H239.848C237.818 104.959 236.174 103.253 236.174 101.149V95.2584C236.174 93.1544 237.818 91.4487 239.848 91.4487H378.212C380.243 91.4487 381.886 93.1544 381.886 95.2584V101.149C381.886 103.253 380.243 104.959 378.212 104.959Z" stroke="#190065" stroke-width="2.30795" stroke-miterlimit="10"/>
<path d="M187.521 212.933H49.155C47.1262 212.933 45.4814 211.227 45.4814 209.124V203.232C45.4814 201.129 47.1262 199.423 49.155 199.423H187.521C189.55 199.423 191.195 201.129 191.195 203.232V209.124C191.195 211.227 189.55 212.933 187.521 212.933Z" stroke="#190065" stroke-width="2.30795" stroke-miterlimit="10"/>
<path d="M286.793 191.189C292.431 191.189 297.003 186.448 297.003 180.601C297.003 174.754 292.431 170.014 286.793 170.014C281.155 170.014 276.583 174.754 276.583 180.601C276.583 186.448 281.155 191.189 286.793 191.189Z" stroke="#461D71" stroke-width="2.30795" stroke-miterlimit="10" stroke-dasharray="4.62 4.62"/>
<path d="M286.793 184.62C288.933 184.62 290.667 182.821 290.667 180.601C290.667 178.382 288.933 176.583 286.793 176.583C284.652 176.583 282.917 178.382 282.917 180.601C282.917 182.821 284.652 184.62 286.793 184.62Z" fill="#461D71"/>
<path d="M385.402 218.012H331.845C330.51 218.012 329.426 216.889 329.426 215.503V145.389C329.426 144.003 330.51 142.88 331.845 142.88H385.402C386.738 142.88 387.821 144.003 387.821 145.389V215.503C387.821 216.889 386.738 218.012 385.402 218.012Z" fill="#C0E9EE"/>
<path d="M335.295 179.837H367.281" stroke="#190065" stroke-width="1.92476" stroke-miterlimit="10" stroke-linecap="round"/>
<path d="M335.295 183.664H381.953" stroke="#190065" stroke-width="1.92476" stroke-miterlimit="10" stroke-linecap="round"/>
<path d="M337.869 205.766H351.779" stroke="#190065" stroke-width="1.64448" stroke-miterlimit="10" stroke-linecap="round"/>
<path d="M337.869 209.52H351.779" stroke="#190065" stroke-width="1.64448" stroke-miterlimit="10" stroke-linecap="round"/>
<path d="M357.262 205.766H368.152" stroke="#190065" stroke-width="1.45498" stroke-miterlimit="10" stroke-linecap="round"/>
<path d="M357.262 209.52H368.152" stroke="#190065" stroke-width="1.45498" stroke-miterlimit="10" stroke-linecap="round"/>
<path d="M371.064 205.766H381.953" stroke="#190065" stroke-width="1.45498" stroke-miterlimit="10" stroke-linecap="round"/>
<path d="M371.064 209.52H381.953" stroke="#190065" stroke-width="1.45498" stroke-miterlimit="10" stroke-linecap="round"/>
<path d="M352.029 201.257H337.619C336.336 201.257 335.295 200.178 335.295 198.848V191.648C335.295 190.318 336.336 189.24 337.619 189.24H352.029C353.312 189.24 354.35 190.318 354.35 191.648V198.848C354.35 200.178 353.312 201.257 352.029 201.257Z" fill="#190065"/>
<path d="M379.629 201.257H373.386C372.103 201.257 371.064 200.178 371.064 198.848V191.648C371.064 190.318 372.103 189.24 373.386 189.24H379.629C380.912 189.24 381.953 190.318 381.953 191.648V198.848C381.953 200.178 380.912 201.257 379.629 201.257Z" fill="#190065"/>
<path d="M365.828 201.257H359.586C358.302 201.257 357.262 200.178 357.262 198.848V191.648C357.262 190.318 358.302 189.24 359.586 189.24H365.828C367.112 189.24 368.152 190.318 368.152 191.648V198.848C368.152 200.178 367.112 201.257 365.828 201.257Z" fill="#190065"/>
<path d="M358.624 173.261C364.452 173.261 369.178 168.361 369.178 162.317C369.178 156.273 364.452 151.373 358.624 151.373C352.795 151.373 348.071 156.273 348.071 162.317C348.071 168.361 352.795 173.261 358.624 173.261Z" fill="#190065"/>
<path d="M362.021 167.618H355.226C354.786 167.618 354.426 167.247 354.426 166.789C354.426 164.58 356.155 162.789 358.286 162.789H358.962C361.093 162.789 362.821 164.58 362.821 166.789C362.821 167.247 362.464 167.618 362.021 167.618Z" fill="#F1F2F2"/>
<path d="M358.624 161.722C359.876 161.722 360.893 160.668 360.893 159.369C360.893 158.069 359.876 157.016 358.624 157.016C357.371 157.016 356.354 158.069 356.354 159.369C356.354 160.668 357.371 161.722 358.624 161.722Z" fill="#F1F2F2"/>
<path opacity="0.37" d="M288.426 176.839L327.688 141.461C328.153 141.042 328.748 140.812 329.362 140.812H387.426C388.836 140.812 389.979 141.997 389.979 143.459V217.433C389.979 218.895 388.836 220.08 387.426 220.08H329.357C328.745 220.08 328.153 219.851 327.691 219.436L288.438 184.286C287.393 183.35 286.793 181.989 286.793 180.557C286.793 179.131 287.388 177.774 288.426 176.839Z" fill="white" fill-opacity="0.5"/>
</g>
<defs>
<clipPath id="clip0">
<rect width="400" height="300" fill="white"/>
</clipPath>
</defs>
</svg>
